<?xml version="1.0" encoding="UTF-8"?>
<svg xmlns="http://www.w3.org/2000/svg" id="Layer_2" data-name="Layer 2" viewBox="0 0 351.3 106.25" width="300" height="91">
  <defs>
    <style>
      .cls-1 {
        fill: #fff;
      }
    </style>
  </defs>
  <g id="Ebene_1" data-name="Ebene 1">
    <g>
      <path class="cls-1" d="m60.47,70.18c1-.1,2-.22,3.03-.38,2.29-.36,4.49-.87,6.58-1.49,11.49-3.46,19.71-10.74,22.06-19.35.64-2.35.85-4.8.56-7.3-.09-.74-.24-1.46-.42-2.17-.05-.19-.1-.38-.16-.57-.2-.65-.42-1.29-.69-1.91-.03-.07-.05-.13-.08-.2-.29-.64-.64-1.27-1.01-1.88-.12-.21-.25-.4-.38-.6-.34-.51-.7-1.01-1.09-1.51-.11-.14-.22-.29-.34-.43-.44-.52-.91-1.02-1.41-1.52-.2-.2-.4-.39-.61-.58-.13-.12-.25-.25-.39-.37.03.03.05.07.08.11-7.25-6.51-19.49-10.04-31.8-8.1-17.96,2.83-28.84,16.83-26.13,29.96.6,2.93,1.75,5.52,3.31,7.8-.03-.03-.06-.05-.08-.07.16.24.34.46.51.69.2.27.39.54.6.8.43.53.88,1.03,1.36,1.51.22.23.47.44.7.65.31.29.62.58.95.85.27.22.55.44.83.65.33.25.67.48,1.01.72.29.19.58.39.88.57.4.25.82.47,1.24.7.27.14.52.29.79.43.67.33,1.36.63,2.07.91.28.11.58.21.87.31.49.18.98.35,1.48.5.33.1.66.19,1,.28.5.14,1.02.26,1.54.37.32.07.64.14.98.2.66.13,1.34.23,2.03.32.2.03.38.06.57.09.88.1,1.77.17,2.68.21.29.01.59.02.89.02.65.02,1.31.03,1.98.02.34,0,.68-.02,1.03-.03.67-.02,1.36-.06,2.04-.12.31-.03.62-.04.94-.08Zm-2.86-7.06c-.47,0-.93,0-1.39-.01-.21,0-.42,0-.63-.02-.64-.03-1.27-.08-1.88-.15-.14-.02-.27-.04-.4-.06-.48-.06-.96-.14-1.43-.22-.23-.04-.46-.09-.69-.14-.37-.08-.73-.17-1.08-.26-.24-.06-.47-.13-.7-.2-.35-.11-.7-.23-1.04-.35-.2-.07-.41-.14-.61-.22-.5-.2-.98-.41-1.45-.64-.19-.09-.37-.2-.56-.3-.29-.16-.59-.32-.87-.49-.21-.13-.41-.26-.62-.4-.24-.16-.48-.33-.71-.5-.2-.15-.39-.3-.58-.45-.23-.19-.45-.39-.67-.59-.16-.15-.34-.3-.49-.46-.34-.34-.66-.69-.96-1.06-.15-.18-.28-.37-.42-.56-.12-.16-.25-.31-.36-.48.02.02.04.03.06.05-1.1-1.6-1.9-3.42-2.33-5.48-1.91-9.23,5.74-19.06,18.36-21.05,8.65-1.36,17.25,1.11,22.34,5.69-.02-.02-.04-.05-.06-.08.1.08.18.18.27.26.14.13.29.27.43.41.35.35.68.7.99,1.07.08.1.16.2.24.3.27.34.53.7.76,1.06.09.14.18.28.27.42.26.43.5.87.71,1.32.02.05.04.09.06.14.19.44.35.89.49,1.34.04.13.08.26.11.4.13.5.24,1.01.3,1.52.2,1.75.06,3.48-.39,5.13-1.65,6.05-7.42,11.16-15.5,13.59-1.47.44-3.01.79-4.62,1.05-.72.12-1.43.2-2.13.27-.22.02-.44.03-.66.05-.48.04-.96.07-1.44.09-.24.01-.48.02-.72.02Z"/>
      <path class="cls-1" d="m80.12,95c.41-.08.82-.19,1.24-.29.21-.05.43-.1.64-.16.62-.18,1.25-.39,1.87-.62,10.18-3.91,15.36-12.99,12.76-19.72-.24-.63-.56-1.2-.92-1.74-.06-.09-.11-.18-.17-.27-.37-.51-.78-.99-1.24-1.41-.02-.02-.04-.05-.06-.06,0,0,0,.02.01.03-4.04-3.67-11.55-4.02-19.65-.91-10.18,3.91-17.37,10.3-14.78,17.04.13.35.31.68.49,1.02,0,0-.02-.01-.02-.02.01.03.04.05.05.08.13.24.28.46.43.69.1.15.19.31.3.45.16.21.34.42.52.63.13.15.25.29.38.44.19.2.39.39.59.58.15.14.3.28.46.42.21.18.43.35.66.52.18.13.36.27.54.39.23.16.47.31.71.46.2.12.41.25.62.36.24.14.5.27.75.39.23.11.46.22.69.32.26.12.52.23.79.33.25.1.5.19.76.28.27.09.54.18.82.27.27.08.55.15.83.22.28.07.55.14.83.2.29.06.59.11.88.17.28.05.56.1.85.14.31.04.62.07.94.1.28.03.57.05.85.07.33.02.66.02.99.02.28,0,.56,0,.84,0,.35,0,.7-.04,1.05-.06.27-.02.54-.03.81-.06.37-.04.74-.1,1.11-.16.25-.04.51-.07.77-.12Zm-1.86-3.79c-.19.02-.38.03-.57.04-.25.02-.49.04-.74.04-.2,0-.39,0-.59,0-.23,0-.46,0-.7-.02-.2,0-.4-.03-.6-.05-.22-.02-.44-.04-.66-.07-.2-.03-.4-.06-.6-.1-.21-.04-.42-.07-.62-.12-.2-.04-.39-.09-.59-.14-.2-.05-.39-.1-.58-.16-.19-.06-.38-.12-.57-.19-.18-.06-.36-.13-.53-.19-.19-.07-.37-.15-.56-.23-.17-.07-.33-.15-.49-.23-.18-.09-.36-.18-.53-.28-.15-.08-.29-.17-.44-.25-.17-.1-.34-.21-.5-.32-.13-.09-.26-.18-.38-.28-.16-.12-.31-.24-.46-.36-.11-.1-.22-.19-.32-.29-.14-.13-.29-.27-.42-.41-.09-.1-.18-.21-.27-.31-.12-.15-.25-.3-.36-.45-.08-.1-.14-.21-.21-.32-.11-.16-.21-.32-.3-.48,0-.02-.02-.04-.03-.05,0,0,.01,0,.02.01-.13-.23-.25-.47-.34-.71-1.82-4.73,3.23-9.22,10.38-11.97,5.69-2.18,10.97-1.94,13.81.64,0,0,0-.01,0-.02.02.01.03.03.04.05.33.3.62.63.87.99.04.06.08.13.12.19.25.38.48.78.65,1.22,1.82,4.73-1.82,11.11-8.97,13.85-.44.17-.88.31-1.31.44-.15.04-.3.07-.45.11-.29.07-.58.15-.87.21-.18.03-.36.06-.54.09-.26.04-.52.09-.78.12Z"/>
      <path class="cls-1" d="m24.77,51.94c-.02-.11-.03-.22-.05-.32-.15-.95-.3-1.85-.45-2.71,0-.05-.02-.11-.03-.17-.97-5.38-2.17-8.97-4.98-9.81-.68-.2-1.44-.26-2.33-.12-5.81.88-10.65,9.41-9.08,19.67.84,5.48,3.33,10.16,6.35,13.21-.02-.01-.03-.02-.05-.03.09.09.19.17.28.26.16.16.33.31.49.46.18.17.37.33.56.48.17.14.34.27.51.4.19.14.38.28.58.41.17.11.34.23.52.33.2.12.4.23.6.33.17.09.34.18.51.26.2.1.41.17.62.25.16.06.33.14.49.19.22.07.43.12.65.17.15.04.31.08.47.11.24.04.47.05.7.07.13.01.26.03.39.04.36,0,.72-.01,1.07-.07,5.81-.88,4.2-10.29,2.64-20.55-.15-.99-.3-1.94-.44-2.87Zm-4.18,16.78c-.22.03-.45.05-.68.04-.08,0-.17-.01-.25-.02-.15-.01-.3-.02-.45-.05-.1-.02-.2-.05-.3-.07-.14-.03-.27-.06-.41-.11-.1-.03-.21-.08-.31-.12-.13-.05-.26-.1-.39-.16-.11-.05-.22-.11-.33-.17-.13-.07-.25-.13-.38-.21-.11-.07-.22-.14-.33-.21-.12-.09-.25-.17-.37-.26-.11-.08-.22-.17-.32-.25-.12-.1-.24-.2-.36-.31-.11-.1-.21-.19-.31-.29-.06-.06-.12-.11-.18-.17,0,0,.02.01.03.02-1.92-1.94-3.51-4.92-4.04-8.41-1-6.53,2.08-11.96,5.78-12.52.57-.09,1.05-.05,1.48.08,1.79.53,2.55,2.82,3.17,6.24,0,.04.01.07.02.11.1.55.19,1.12.29,1.72.01.07.02.14.03.21.09.59.18,1.19.28,1.82,1,6.53,2.02,12.52-1.68,13.08Z"/>
      <path class="cls-1" d="m116.65,39.16c-.07-.4-.12-.79-.23-1.2-.1-.37-.25-.75-.39-1.12-.14-.38-.25-.75-.43-1.14-.18-.42-.42-.84-.64-1.27-.19-.36-.37-.72-.59-1.09-.27-.45-.59-.91-.91-1.36-.24-.35-.47-.69-.74-1.03-.36-.46-.76-.92-1.16-1.38-.3-.34-.59-.67-.91-1-.43-.45-.91-.89-1.39-1.33-.23-.21-.43-.43-.67-.64.06.06.11.13.18.2-.4-.36-.77-.72-1.21-1.07-7.6-6.05-15.27-6.96-18.9-4.3-2.48,1.81-.28,6.14,3.92,10.67-.01,0-.02-.02-.03-.03.02.03.05.05.08.08.81.87,1.69,1.75,2.62,2.61.07.06.14.13.21.19.98.9,2.01,1.79,3.09,2.64,6.17,4.92,12.69,8.36,15.97,7.41.76-.22,1.35-.67,1.71-1.4.25-.48.41-1.03.51-1.62.03-.2,0-.43.03-.63.03-.41.06-.82.03-1.27-.02-.29-.1-.61-.15-.91Zm-6.88-2.04c0,.11,0,.23-.01.33-.05.31-.14.59-.26.84-.19.38-.5.61-.89.72-1.7.49-5.08-1.29-8.28-3.84-.56-.44-1.09-.9-1.6-1.37-.04-.03-.07-.07-.11-.1-.49-.45-.94-.9-1.36-1.35-.01-.01-.03-.03-.04-.04,0,0,0,0,.01.01-2.17-2.35-3.32-4.59-2.03-5.53,1.88-1.38,5.86-.91,9.8,2.23.23.18.42.37.63.56-.03-.04-.06-.07-.09-.1.13.11.23.22.35.33.25.23.5.46.72.69.17.17.32.34.47.52.21.24.42.48.6.72.14.18.26.36.38.54.17.24.33.47.47.71.11.19.21.38.31.56.12.22.24.44.33.66.09.2.15.4.22.59.07.2.15.39.2.58.06.21.09.42.12.62.03.16.07.32.08.47.02.23,0,.44-.02.66Z"/>
      <path class="cls-1" d="m42.68,20.75s.04,0,.06,0c.41,0,.83-.02,1.27-.04.08,0,.16-.01.24-.02.38-.02.76-.05,1.15-.08.15-.01.3-.03.45-.04.33-.03.66-.06.99-.1.24-.03.49-.06.74-.1.26-.03.51-.06.77-.09.34-.05.69-.1,1.04-.16.17-.03.33-.05.5-.08.52-.09,1.04-.18,1.57-.28,8.5-1.6,14.51-4.33,13.86-7.74-.05-.26-.15-.5-.27-.74-.04-.06-.08-.12-.11-.19-.12-.19-.25-.37-.42-.55-.04-.05-.08-.1-.13-.14-.45-.46-1.05-.88-1.77-1.24,0,0,0,0,0,0,0,0,0,0,0,0-3.11-1.57-8.48-2.21-14.2-1.14-8.5,1.6-14.49,6.4-13.85,9.81.41,2.15,3.65,2.99,8.13,2.92Zm6.31-10.35c3.48-.66,6.76-.27,8.66.69,0,0,0,0,0,0,0,0,0,0,0,0,.44.22.81.48,1.08.76.03.03.05.06.08.09.1.11.18.22.25.33.02.04.05.08.07.11.08.15.14.3.17.45.4,2.08-3.27,3.74-8.46,4.72-.32.06-.64.12-.96.17-.1.02-.2.03-.3.05-.21.03-.43.07-.63.1-.16.02-.31.04-.47.06-.15.02-.3.04-.45.06-.2.02-.4.04-.6.06-.09,0-.18.02-.28.03-.24.02-.47.03-.7.05-.05,0-.1,0-.15,0-.26.01-.52.02-.77.03-.01,0-.02,0-.04,0-2.73.04-4.71-.47-4.96-1.78-.39-2.08,3.27-5.01,8.45-5.98Z"/>
      <path class="cls-1" d="m125.84,29c-.42-.52-.84-.98-1.27-1.41-.02-.02-.04-.04-.05-.06,0,0,.01.02.02.03-2.65-2.63-5.44-3.56-7.07-2.89-1.83.75.73,5,3.73,8.73.13.16.26.31.39.47-.02-.02-.04-.04-.06-.06.11.13.22.26.33.39.2.25.4.48.61.72.16.19.32.36.48.53.2.22.39.43.58.63.16.17.31.32.47.47.18.18.37.37.55.53.16.14.3.26.46.39.17.14.34.29.5.41.15.11.29.2.44.29.14.09.29.2.43.27.15.08.29.12.43.16.12.04.24.1.35.12.15.03.29,0,.43-.01.08,0,.16,0,.23-.01.2-.07.38-.19.53-.38.16-.2.29-.43.38-.7.66-1.88-.26-5.36-2.89-8.63Zm-.23,5.41c-.04.13-.1.23-.18.33-.07.09-.15.14-.25.18-.03.01-.07,0-.11,0-.07,0-.13.02-.2,0-.05,0-.11-.04-.16-.06-.07-.02-.13-.04-.2-.08-.06-.03-.13-.08-.2-.13-.07-.04-.13-.08-.21-.13-.08-.05-.15-.12-.23-.19-.07-.06-.14-.11-.21-.18-.08-.08-.17-.16-.25-.25-.07-.07-.14-.14-.22-.22-.09-.09-.18-.19-.27-.29-.07-.08-.15-.16-.22-.25-.09-.11-.19-.22-.28-.33-.05-.06-.1-.12-.15-.18,0,0,.02.02.03.03-.06-.08-.12-.14-.18-.22-1.4-1.74-2.59-3.71-1.74-4.06.76-.31,2.05.12,3.29,1.35,0,0,0-.01,0-.01,0,0,.02.02.02.03.2.2.4.41.59.65,1.22,1.52,1.65,3.14,1.34,4.01Z"/>
      <path class="cls-1" d="m97.04,97.48c-.06-.06-.15-.11-.22-.17-.12-.09-.24-.19-.39-.26-.1-.05-.24-.08-.36-.13-.15-.05-.3-.09-.47-.13-.15-.03-.31-.04-.48-.06-.1,0-.19-.03-.29-.04,0,0,0,.01,0,.02-1.68-.09-4.04.38-6.82,1.29-4.12,1.35-7.82,3.53-8.65,5.36-.01,0-.03,0-.04,0-.03.07-.03.13-.06.19-.03.09-.06.17-.07.25-.05.23-.06.46.01.68.66,1.98,5.93,2.36,10.94.71,5-1.64,7.91-5.15,7.26-7.13-.08-.23-.2-.43-.37-.61Zm-7.58,6.32c-3.11,1.02-6.39.79-6.79-.44-.04-.13-.04-.28,0-.42.01-.05.03-.1.04-.16.02-.04.02-.08.04-.12,0,0,.02,0,.02,0,.51-1.14,2.81-2.49,5.37-3.33,1.73-.57,3.19-.86,4.24-.8,0,0,0,0,0-.01.06,0,.12.02.18.02.1,0,.2.02.3.04.11.02.2.05.29.08.07.03.16.05.22.08.09.05.17.1.24.16.04.04.1.06.13.1.1.11.18.23.23.38.4,1.23-1.4,3.41-4.51,4.43Z"/>
      <path class="cls-1" d="m6.31,65.36c-.04-.11-.07-.22-.11-.32-.12-.36-.23-.71-.35-1.04-.05-.14-.1-.28-.15-.41-.1-.29-.21-.56-.31-.82-.05-.12-.1-.25-.15-.36-.12-.29-.24-.55-.37-.79-.03-.05-.05-.12-.08-.17-.15-.28-.31-.52-.47-.72-.05-.06-.1-.11-.15-.17-.12-.13-.24-.24-.36-.33-.06-.05-.13-.09-.2-.12-.06-.03-.11-.08-.17-.1,0,.01.01.03.02.04-.33-.13-.68-.18-1.09-.05-2.08.66-3.15,4.71-1.7,9.27.32,1.02.75,1.95,1.23,2.79,0,0-.02,0-.02-.02.02.04.05.09.08.13.11.19.23.37.34.55.14.22.28.43.43.64.12.16.24.33.37.48.17.21.35.4.52.59.11.11.21.24.32.34.28.27.56.5.83.71.09.06.18.11.27.17.21.13.41.25.61.35.1.05.2.09.3.12.2.07.39.12.58.15.09.02.17.04.25.04.26.02.52,0,.76-.06.26-.08.47-.22.62-.4,1.11-1.3-.12-4.99-1.38-8.98-.16-.52-.32-1.02-.47-1.49Zm.1,6.98c-.09.1-.2.17-.34.22-.13.04-.27.05-.41.04-.05,0-.09-.01-.14-.02-.1-.01-.21-.04-.32-.08-.05-.02-.11-.04-.16-.07-.11-.05-.22-.12-.34-.19-.05-.03-.1-.06-.15-.09-.15-.11-.3-.24-.46-.39-.06-.06-.12-.12-.17-.18-.1-.1-.19-.21-.29-.32-.07-.08-.13-.17-.2-.26-.08-.11-.16-.23-.24-.35-.06-.1-.13-.2-.19-.3-.02-.02-.03-.05-.04-.07,0,0,0,0,.01.01-.26-.46-.5-.97-.67-1.53-.79-2.5-.21-4.72.93-5.08.22-.07.41-.04.6.03,0,0,0-.02-.01-.02.03.01.06.04.09.06.04.02.08.04.11.07.07.05.13.11.2.18.03.03.06.06.08.09.09.11.17.24.26.39.01.03.03.06.04.09.07.13.14.28.2.44.03.06.05.13.08.2.06.14.11.29.17.45.03.07.05.15.08.23.06.18.13.37.19.57.02.06.04.12.06.18.08.26.17.53.26.82.69,2.18,1.36,4.21.76,4.92Z"/>
      <path class="cls-1" d="m43.21,6.38c.97-.16,2-.39,3.06-.67,4.23-1.11,7.2-2.62,6.8-4.13-.04-.17-.15-.32-.28-.47-.04-.05-.09-.09-.14-.13-.11-.1-.24-.19-.39-.28-.07-.04-.13-.07-.2-.11-.21-.1-.44-.2-.71-.27t0,0c-1.62-.48-4.19-.48-6.87.23-3.85,1.02-6.57,3.11-6.75,4.62,0,0-.02,0-.02,0-.02.15-.02.3.02.44.3,1.13,2.57,1.24,5.47.76Zm-2.04-2.03c.1-.83,1.6-1.99,3.72-2.55,1.48-.39,2.9-.39,3.79-.13t0,0c.15.04.28.09.39.15.04.02.07.04.11.06.08.05.15.1.21.15.03.02.05.05.07.07.07.08.13.16.15.26.22.83-1.41,1.66-3.75,2.28-.58.15-1.16.28-1.69.37-1.6.27-2.85.2-3.02-.42-.02-.08-.02-.16,0-.24,0,0,0,0,.01,0Z"/>
      <g>
        <path class="cls-1" d="m248.4,49.83c-4.56,0-8.68,1.88-11.64,4.91v-.07c-2.96-3-7.06-4.86-11.6-4.86-8.98,0-16.26,7.28-16.26,16.26v39.51h9.29v-39.5c.01-3.85,3.13-6.97,6.98-6.97s6.97,3.12,6.97,6.97l-.04,39.5h9.3l.02-39.51.02.03c0-3.85,3.12-6.97,6.97-6.97s6.97,3.12,6.97,6.97l-.03,39.48h9.3v-39.49c.01-8.98-7.26-16.26-16.25-16.26Z"/>
        <path class="cls-1" d="m302.59,49.66c-10.26,0-18.58,8.32-18.58,18.58l-.02,18.7c0,10.26,8.32,18.58,18.58,18.58l13.97.05c2.57,0,1.76,0,4.63,0v-37.33c0-10.26-8.32-18.58-18.59-18.58Zm0,46.57c-5.13,0-9.29-4.14-9.29-9.28l.04-18.71c0-5.13,4.16-9.29,9.29-9.29s9.29,4.16,9.29,9.29l.02,27.99h-9.35Z"/>
        <path class="cls-1" d="m336.94,49.87v-22.92h-9.31l-.03,59.9c0,10.26,0,13.07,0,18.73h9.31c0-4.28,0-13.59,0-18.72l.02-27.73h14.37v-9.24l-14.36-.02Z"/>
        <path class="cls-1" d="m139.78,49.84c-10.26,0-18.58,8.32-18.58,18.58v37.11h9.33v-37.11c0-5.13,4.16-9.29,9.29-9.29s9.29,4.16,9.29,9.29v37.11c3.73.02,7.77,0,9.25,0v-37.11c0-10.26-8.32-18.58-18.58-18.58Z"/>
        <rect class="cls-1" x="271.05" y="96.27" width="9.3" height="9.31"/>
        <path class="cls-1" d="m200.83,93.35s0,0,0,0c0,0,0,0,0,.01v-.02Z"/>
        <path class="cls-1" d="m200.83,62.02c-2.61-7.1-9.44-12.17-17.44-12.17-10.26,0-18.58,8.32-18.58,18.58l-.02,18.54c0,10.26,8.32,18.58,18.58,18.58,8.02,0,14.86-5.08,17.46-12.2.01-.03,0-.07.01-.1,1.12-3.18,1.05-7.47,1.05-7.47h-9.3c0,3.38-.58,4.54-.58,4.54h.01c-1.37,3.43-4.71,5.85-8.63,5.85-5.13,0-9.3-4.06-9.3-9.2l.02-18.56c0-5.13,4.16-9.2,9.3-9.2,4,0,7.42,2.54,8.72,6.09,0,0,0,0,0,0,.05.11.57,1.31.57,4.51h9.3s.08-4.61-1.17-7.81h0Z"/>
      </g>
    </g>
  </g>
</svg>
